<svg width="19" height="27" fill="none" xmlns="http://www.w3.org/2000/svg"><path fill-rule="evenodd" clip-rule="evenodd" d="M0 10.466a9.511 9.511 0 019.5-9.5 9.51 9.51 0 019.5 9.5c0 4.7-7.769 14.027-9.5 16.047C7.769 24.494 0 15.168 0 10.466zm2.714-.452A6.786 6.786 0 009.5 16.8a6.793 6.793 0 006.786-6.786 6.785 6.785 0 10-13.572 0zm.905 0A5.88 5.88 0 019.5 4.133a5.888 5.888 0 015.88 5.88 5.88 5.88 0 01-11.76 0zm3.619.452h.905v-.905h-.905v.905zm1.357-.905v.905h1.81v-.905h-1.81zm2.262.905h.905v-.905h-.905v.905z" fill="#575757"/></svg>