<svg width="12" height="21" viewBox="0 0 12 21" fill="none" xmlns="http://www.w3.org/2000/svg">
<path d="M2.69824 11.7881V17H1.61719V4.20312H5.97656C7.30664 4.20312 8.35547 4.54297 9.12305 5.22266C9.89648 5.90234 10.2832 6.83691 10.2832 8.02637C10.2832 9.22754 9.91113 10.1562 9.16699 10.8125C8.42871 11.4629 7.35645 11.7881 5.9502 11.7881H2.69824ZM2.69824 10.874H5.97656C7.02539 10.874 7.8252 10.625 8.37598 10.127C8.92676 9.62891 9.20215 8.93457 9.20215 8.04395C9.20215 7.15918 8.92676 6.45605 8.37598 5.93457C7.83105 5.40723 7.05469 5.1377 6.04688 5.12598H2.69824V10.874Z" fill="black"/>
<line y1="14.5" x2="8" y2="14.5" stroke="black"/>
</svg>
