<svg width="19" height="27" viewBox="0 0 19 27" fill="none" xmlns="http://www.w3.org/2000/svg">
<path fill-rule="evenodd" clip-rule="evenodd" d="M0 10.4663C0.00601862 5.22216 4.25586 0.972327 9.5 0.966309C14.7443 0.972327 18.994 5.22216 19 10.4663C19 15.1661 11.2314 24.493 9.5 26.5135C7.76895 24.4935 0 15.1679 0 10.4663ZM2.71439 10.0139C2.71439 13.7615 5.75236 16.7996 9.5 16.7996C13.246 16.7954 16.2815 13.7597 16.2856 10.0139C16.2856 6.26621 13.2478 3.22824 9.5 3.22824C5.75236 3.22824 2.71439 6.26621 2.71439 10.0139ZM3.61911 10.0137C3.61911 6.76574 6.25207 4.13278 9.49998 4.13278C12.7463 4.1365 15.3771 6.76733 15.3809 10.0137C15.3809 13.2616 12.7479 15.8945 9.49998 15.8945C6.25207 15.8945 3.61911 13.2616 3.61911 10.0137ZM7.23805 10.4661H8.14279V9.56138H7.23805V10.4661ZM8.59525 9.56138V10.4661H10.4047V9.56138H8.59525ZM10.8572 10.4661H11.7619V9.56138H10.8572V10.4661Z" fill="#575757"/>
</svg>
