<svg width="16" height="22" viewBox="0 0 16 22" fill="none" xmlns="http://www.w3.org/2000/svg">
<path fill-rule="evenodd" clip-rule="evenodd" d="M-9.15527e-05 8C0.00497676 3.58388 3.58379 0.00506827 7.99991 0C12.4162 0.00506827 15.9948 3.58388 15.9999 8C15.9999 11.9577 9.45794 19.812 7.99991 21.5134C6.54218 19.8124 -9.15527e-05 11.9592 -9.15527e-05 8ZM2.28571 7.61898C2.28571 10.7749 4.844 13.3333 7.99991 13.3333C11.1545 13.3298 13.7107 10.7734 13.7141 7.61898C13.7141 4.46308 11.156 1.90478 7.99991 1.90478C4.844 1.90478 2.28571 4.46308 2.28571 7.61898ZM3.04759 7.61898C3.04759 4.88389 5.26482 2.66666 7.9999 2.66666C10.7337 2.66979 12.9491 4.88523 12.9522 7.61898C12.9522 10.3541 10.735 12.5713 7.9999 12.5713C5.26482 12.5713 3.04759 10.3541 3.04759 7.61898ZM6.09512 7.99999H6.857V7.23811H6.09512V7.99999ZM7.23802 7.23811V7.99999H8.76179V7.23811H7.23802ZM9.1428 7.99999H9.90469V7.23811H9.1428V7.99999Z" fill="#EEB51A"/>
</svg>
